# xmcd
#
# Track frame offsets:
# 150
# 13865
# 26382
# 39567
# 55852
# 71862
# 83600
# 94775
# 108365
# 121202
# 132277
# 145670
# 163167
#
# Disc length: 2328 seconds
#
#
# Revision: 0
# Processed by: cddbd v1.5PL3 Copyright (c) Steve Scherf et al.
# Submitted via: FreeRIP 2.51 
#
DISCID=a909160d
DTITLE=Nugget - 20 Years Of Diggin'
DYEAR=1995
DGENRE=Bluegrass
TTITLE0=Under The Gun
TTITLE1=Live and Let Live
TTITLE2=Marie Ange
TTITLE3=Shotgun Down The Avalanche
TTITLE4=Let Your Love Flow
TTITLE5=River Of Tears
TTITLE6=You Got Me Cryin'
TTITLE7=I'm Moving On
TTITLE8=Summerfly
TTITLE9=Oh Lonesome You
TTITLE10=Why Can't I Say Goodbye
TTITLE11=Minorities
TTITLE12=The Tie That Binds
EXTD=
EXTT0=
EXTT1=
EXTT2=
EXTT3=
EXTT4=
EXTT5=
EXTT6=
EXTT7=
EXTT8=
EXTT9=
EXTT10=
EXTT11=
EXTT12=
PLAYORDER=
